PathFileType	4	(X/Y/Z)	s05c0302.trc
DataRate	CameraRate	NumFrames	NumMarkers	Units	OrigDataRate	OrigDataStartFrame	OrigNumFrames
200	200	4	49	mm	200	1750	2000
Frame#	Time	racr			lacr			c7			jug			rlel			rdr			llel			ldr			s2			lic			ric			lasi			rasi			rpsi			lpsi			rgt			lgt			rth1			rth2			rth3			rth4			rlfc			rsh1			rsh2			rsh3			rsh4			rlmal			rmmal			rcal			rtoe			rmt5			lth1			lth2			lth4			lth3			llfc			lmfc			lsh1			lsh2			lsh3			lsh4			llmal			lmmal			lcal			ltoe			lmt5			SBIKE			LBIKE			RBIKE			
		X1	Y1	Z1	X2	Y2	Z2	X3	Y3	Z3	X4	Y4	Z4	X5	Y5	Z5	X6	Y6	Z6	X7	Y7	Z7	X8	Y8	Z8	X9	Y9	Z9	X10	Y10	Z10	X11	Y11	Z11	X12	Y12	Z12	X13	Y13	Z13	X14	Y14	Z14	X15	Y15	Z15	X16	Y16	Z16	X17	Y17	Z17	X18	Y18	Z18	X19	Y19	Z19	X20	Y20	Z20	X21	Y21	Z21	X22	Y22	Z22	X23	Y23	Z23	X24	Y24	Z24	X25	Y25	Z25	X26	Y26	Z26	X27	Y27	Z27	X28	Y28	Z28	X29	Y29	Z29	X30	Y30	Z30	X31	Y31	Z31	X32	Y32	Z32	X33	Y33	Z33	X34	Y34	Z34	X35	Y35	Z35	X36	Y36	Z36	X37	Y37	Z37	X38	Y38	Z38	X39	Y39	Z39	X40	Y40	Z40	X41	Y41	Z41	X42	Y42	Z42	X43	Y43	Z43	X44	Y44	Z44	X45	Y45	Z45	X46	Y46	Z46	X47	Y47	Z47	X48	Y48	Z48	X49	Y49	Z49	
1750	8.7500	430.766864	1371.060174	-153.830817	422.308107	1374.744792	-417.109545	404.344875	1453.927609	-289.939387	369.189175	1297.782426	-285.380943	536.278872	1130.543257	-67.708744	695.422813	917.083041	-108.210047	517.225091	1124.959030	-511.596950	692.586254	917.187356	-468.275681	-121.757450	1151.209659	-280.641773	22.864781	1174.398848	-420.828091	18.340571	1197.392981	-138.158652	75.501534	1127.635179	-383.590071	65.956061	1140.317619	-163.192434	-93.929253	1203.578932	-239.138948	-88.826098	1202.227055	-326.809616	-12.457160	1066.032078	-103.028329	-30.030418	1060.193563	-443.881713	95.875457	1019.327096	-88.259279	184.503439	1011.103567	-83.470921	255.330489	958.630688	-83.642790	197.178678	1043.420659	-96.133636	395.527635	888.734322	-105.643644	340.292095	793.241671	-84.593032	331.841829	705.526204	-98.051284	284.422929	634.774220	-102.987442	361.472569	699.210226	-123.121007	240.683804	509.876899	-115.471329	256.185730	539.546111	-193.698547	168.117743	484.739008	-163.107911	457.462016	424.048122	-161.952530	355.071682	415.538274	-96.007152	62.993047	946.856627	-460.692632	136.492869	902.077792	-457.035454	162.853738	924.933324	-443.478915	177.980483	821.656133	-454.816332	255.333548	698.296208	-421.748611	240.362934	688.161066	-313.744948	164.353130	610.198533	-448.510813	130.636760	529.858611	-437.990390	59.665507	476.428772	-438.238262	156.257565	512.695262	-415.123642	-7.666876	384.866932	-431.542834	28.650985	394.008967	-358.809612	-80.462517	373.002746	-389.373007	163.035635	208.075134	-402.469376	55.413317	240.610261	-461.936965	-173.900193	898.578671	-273.670735	-53.463766	79.073864	-474.697287	-53.409643	79.199778	-77.084134	
1751	8.7550	430.854503	1370.960300	-154.377879	422.190573	1374.684660	-417.740229	404.243499	1453.869754	-290.464475	369.097300	1297.760290	-285.929745	536.490270	1130.516085	-68.359142	695.534852	916.891503	-108.324888	517.051613	1124.856697	-512.006597	692.552904	917.240006	-468.232935	-121.798677	1151.134440	-280.425579	22.503151	1174.528079	-420.633108	18.730792	1197.025696	-137.898840	75.257314	1127.736137	-383.549917	66.149126	1139.890342	-162.917229	-93.818106	1203.188686	-238.195752	-88.995052	1202.158372	-326.310298	-12.468119	1064.850017	-103.102199	-30.025390	1060.357152	-443.751621	95.504095	1016.552616	-87.833268	184.073342	1006.819989	-83.025394	254.005597	953.040402	-83.619231	197.227526	1039.034454	-95.496866	393.313479	882.125886	-105.696223	339.217051	785.766548	-84.491005	331.969631	698.027308	-98.045884	285.315921	626.652224	-102.966506	361.560815	691.996828	-123.117634	243.431790	501.318012	-115.467820	258.625168	531.178278	-193.656848	171.436002	475.436987	-163.310283	460.923419	417.598045	-161.987494	358.610265	408.060410	-95.998812	64.036521	947.626651	-460.488930	138.073163	903.780678	-456.801993	164.123319	926.959137	-443.256204	180.503490	823.852073	-454.507477	258.843745	701.256742	-421.712014	243.838433	691.167380	-313.544455	166.590669	614.640398	-448.220603	131.504831	534.929398	-437.862634	59.554539	482.811801	-438.086737	157.039744	517.398990	-415.297789	-9.718719	392.598994	-431.527422	26.825555	401.369658	-358.677934	-82.795086	381.525839	-389.361296	159.171036	214.393856	-402.422627	51.892006	247.923787	-461.884608	-174.030479	898.592795	-273.748046	-53.463535	79.105582	-474.725522	-53.402168	79.179521	-77.106559	
1752	8.7600	430.955754	1370.870935	-154.933976	422.029219	1374.625154	-418.419316	404.167364	1453.854380	-291.009351	369.073935	1297.746367	-286.465867	536.731507	1130.456541	-69.021476	695.647045	916.701548	-108.464782	516.877064	1124.725507	-512.450026	692.526678	917.314094	-468.253484	-121.868817	1150.867809	-280.061034	22.074053	1174.558343	-420.346254	19.163206	1196.649879	-137.608191	74.993629	1127.845565	-383.476191	66.409059	1139.336508	-162.659537	-93.652289	1202.961031	-237.620094	-89.143674	1202.126173	-325.802294	-12.425378	1063.763921	-103.124983	-30.003974	1060.508667	-443.590856	95.087132	1013.597011	-87.320764	183.577944	1002.348662	-82.590127	252.574390	947.326192	-83.612297	197.266368	1034.508079	-94.852928	391.066405	874.744978	-106.220799	337.892177	778.164676	-84.407033	331.741824	690.329378	-98.060199	286.104480	618.333065	-103.001726	361.479866	684.681930	-123.208296	245.849514	492.458792	-115.661072	260.838776	522.977559	-194.086102	173.549946	466.451983	-162.987056	463.976939	411.028897	-161.959824	361.812704	400.532272	-95.959219	65.116767	948.466362	-460.271612	139.690104	905.549654	-456.559479	165.488706	929.071369	-443.019074	183.144765	826.240795	-454.280333	262.516226	704.281200	-421.500180	247.417949	694.384969	-313.336285	169.231002	619.173784	-448.032236	132.642442	540.147188	-437.737306	59.766958	489.293132	-437.994410	157.417879	521.986402	-414.707004	-11.324321	400.391563	-431.552430	25.033983	409.049560	-358.467060	-84.750302	390.170576	-389.337166	155.707528	220.838564	-402.508911	48.741481	255.377193	-461.917575	-174.103362	898.588989	-273.829222	-53.448251	79.134524	-474.732696	-53.427106	79.209596	-77.088542	
1753	8.7650	431.046069	1370.751974	-155.494611	421.843419	1374.576537	-419.116166	404.067137	1453.775813	-291.550997	369.113271	1297.653348	-287.021267	536.967542	1130.417183	-69.610752	695.792927	916.536291	-108.581713	516.657472	1124.536885	-512.927901	692.519651	917.391568	-468.251820	-121.950046	1150.763244	-279.799146	21.721678	1174.648060	-420.148350	19.719026	1196.204304	-137.292322	74.756570	1127.887168	-383.378889	66.746450	1138.877280	-162.421443	-93.404165	1202.703018	-236.852926	-89.291783	1202.101601	-325.299493	-12.381658	1062.564088	-103.105489	-29.960905	1060.655757	-443.412717	94.912820	1010.447709	-86.934820	183.057155	997.785468	-82.220104	251.197145	941.689995	-83.550132	197.303231	1029.793181	-94.202789	388.658359	867.575486	-106.438781	336.351865	770.390277	-84.351299	331.286933	682.420880	-98.123861	286.558676	609.872717	-103.023225	360.956908	677.166440	-123.321303	247.742420	483.791085	-115.689364	262.210438	514.145402	-193.590593	175.714462	457.173643	-162.919224	466.644689	404.331393	-161.961900	364.607693	392.988801	-95.900894	66.220419	949.357985	-460.101328	141.373745	907.427267	-456.376977	166.830863	931.290978	-442.855134	185.866102	828.665930	-453.975798	266.244814	707.476168	-421.458705	251.020572	697.772974	-313.207007	171.869630	623.575511	-447.378243	134.037564	545.422924	-437.615015	60.286032	495.815481	-437.939078	158.490597	526.834884	-414.515928	-12.567364	408.323004	-431.551342	24.078384	416.393736	-358.392845	-86.248787	398.820587	-389.333272	152.626698	227.295705	-402.469022	45.983495	262.854244	-461.870438	-174.220437	898.570242	-273.859726	-53.455660	79.141482	-474.710375	-53.404820	79.192837	-77.093275	
